<?xml version="1.0" standalone="no"?>
<!DOCTYPE svg PUBLIC "-//W3C//DTD SVG 20010904//EN"
 "http://www.w3.org/TR/2001/REC-SVG-20010904/DTD/svg10.dtd">
<svg version="1.0" xmlns="http://www.w3.org/2000/svg"
 width="1600.000000pt" height="1600.000000pt" viewBox="0 0 1600.000000 1600.000000"
 preserveAspectRatio="xMidYMid meet">
<metadata>
Created by potrace 1.14, written by Peter Selinger 2001-2017
</metadata>
<g transform="translate(0.000000,1600.000000) scale(0.100000,-0.100000)"
fill="#000000" stroke="none">
<path d="M3318 14945 c-2 -1 -32 -6 -68 -9 -268 -28 -561 -174 -766 -382 -353
-358 -470 -885 -303 -1362 165 -470 615 -825 1100 -868 419 -37 790 96 1078
386 253 255 384 593 375 962 -11 458 -262 872 -669 1106 -123 71 -325 140
-460 158 -53 6 -282 14 -287 9z"/>
<path d="M1538 13375 c-2 -1 -24 -5 -49 -8 -187 -22 -370 -194 -423 -397 -12
-47 -14 -344 -12 -2035 1 -1866 2 -1985 19 -2060 56 -248 202 -477 401 -629
75 -58 103 -72 2066 -1049 553 -275 1007 -502 1009 -504 5 -4 -11 -68 -78
-303 -23 -80 -43 -152 -45 -161 -5 -20 -43 -154 -55 -194 -5 -16 -28 -97 -51
-180 -22 -82 -50 -179 -61 -215 -28 -95 -110 -382 -115 -405 -2 -11 -22 -83
-44 -160 -23 -77 -43 -151 -46 -164 -3 -14 -7 -28 -10 -33 -3 -4 -7 -16 -9
-27 -5 -25 -64 -240 -75 -271 -5 -14 -36 -124 -70 -245 -33 -121 -69 -249 -80
-285 -15 -53 -42 -147 -76 -272 -4 -15 0 -17 23 -13 15 2 60 7 98 10 39 3 85
7 103 10 93 12 118 16 132 20 8 2 31 6 50 9 19 3 98 21 175 41 77 20 148 38
158 40 10 2 91 29 180 59 147 49 264 96 506 200 203 88 380 126 606 130 266 6
479 -43 755 -171 113 -53 300 -126 443 -173 116 -38 400 -114 465 -124 34 -5
115 -19 122 -21 3 -1 34 -5 70 -9 36 -4 82 -9 102 -12 l37 -5 31 103 c84 273
383 1242 404 1308 13 41 61 197 107 345 45 149 83 271 84 273 2 2 250 -32 302
-42 11 -3 44 -7 74 -11 30 -4 89 -13 132 -21 44 -7 82 -13 85 -12 4 1 39 -3
77 -10 39 -6 88 -14 110 -17 23 -3 50 -7 60 -9 11 -2 43 -7 70 -10 28 -4 57
-9 65 -11 8 -2 38 -6 65 -10 28 -3 91 -12 140 -20 50 -7 110 -16 135 -20 25
-3 56 -8 70 -10 51 -9 106 -17 140 -21 19 -2 46 -6 60 -8 14 -3 45 -8 70 -11
25 -3 70 -10 100 -15 30 -5 75 -11 100 -14 25 -4 56 -8 70 -11 23 -4 61 -10
140 -21 19 -3 60 -9 90 -14 30 -5 78 -12 105 -15 28 -3 59 -8 70 -10 11 -3 38
-7 60 -10 22 -3 67 -10 100 -15 33 -5 80 -12 105 -15 25 -3 54 -7 65 -9 37 -7
100 -17 135 -21 19 -2 53 -7 75 -10 22 -4 51 -8 65 -10 100 -15 386 -57 435
-65 71 -11 117 -18 165 -25 19 -2 96 -14 170 -25 74 -11 153 -23 175 -26 22
-2 65 -9 95 -14 30 -5 71 -11 90 -14 19 -3 100 -14 180 -26 173 -26 172 -26
235 -34 28 -4 59 -9 70 -11 22 -4 218 -34 274 -41 19 -2 46 -6 60 -9 14 -2 46
-6 71 -10 25 -3 56 -8 70 -10 34 -6 76 -13 130 -20 25 -3 70 -10 100 -15 30
-5 75 -12 100 -15 25 -3 70 -10 100 -15 30 -5 78 -12 105 -16 28 -3 66 -9 87
-14 68 -14 240 -12 303 5 134 35 242 113 316 228 60 93 79 161 80 287 2 147
-58 281 -171 383 -67 60 -136 97 -235 126 -38 11 -115 34 -170 50 -150 45
-416 122 -450 131 -28 8 -113 32 -670 195 -126 37 -243 71 -260 75 -16 5 -147
43 -290 85 -143 42 -476 139 -740 216 -264 77 -572 167 -685 200 -113 34 -218
64 -235 69 -38 10 -389 112 -520 151 -55 17 -107 32 -115 34 -8 2 -94 26 -190
54 -96 29 -238 70 -315 92 -77 23 -183 54 -235 69 -52 16 -322 94 -600 175
-278 81 -563 164 -635 185 -71 21 -215 63 -320 94 -104 30 -262 76 -350 101
-88 26 -173 51 -190 55 -16 4 -70 20 -120 35 -168 50 -360 107 -390 114 -16 4
-46 13 -65 19 -40 14 -275 82 -299 87 -9 2 -248 72 -531 155 -283 83 -546 157
-585 165 -38 8 -119 26 -180 40 -60 15 -117 28 -125 30 -36 8 -194 46 -292 69
-60 14 -154 37 -210 50 -155 37 -336 81 -613 147 -411 99 -556 133 -850 203
-154 37 -307 74 -339 82 -32 9 -71 18 -85 20 -37 7 -172 42 -176 46 -4 4 -19
123 -30 233 -3 33 -7 76 -10 95 -2 19 -7 56 -10 83 -3 26 -7 68 -10 95 -3 26
-8 63 -10 82 -3 19 -7 62 -10 95 -3 33 -7 76 -10 95 -2 19 -7 53 -10 75 -6 48
-55 484 -60 540 -3 22 -7 60 -10 85 -10 91 -14 126 -20 180 -3 30 -8 71 -10
90 -5 40 -16 133 -20 170 -5 56 -17 157 -20 180 -4 28 -17 142 -20 180 -4 44
-16 154 -20 180 -4 25 -10 81 -20 175 -5 50 -13 120 -20 185 -2 19 -7 58 -10
85 -11 93 -14 120 -20 175 -3 30 -7 71 -10 90 -2 19 -7 60 -11 90 -3 30 -8 71
-11 90 -2 19 -6 96 -8 170 -2 114 -7 147 -29 214 -70 208 -252 348 -468 360
-37 3 -68 3 -70 1z"/>
<path d="M7750 12309 c-264 -28 -500 -110 -709 -245 -281 -184 -473 -415 -614
-744 -21 -49 -65 -194 -78 -260 -6 -30 -12 -62 -14 -70 -26 -125 -22 -382 10
-560 18 -104 76 -271 132 -385 37 -75 134 -237 153 -255 3 -3 23 -27 45 -55
67 -84 204 -212 297 -277 207 -147 406 -231 663 -278 145 -27 428 -22 575 10
534 115 959 475 1159 982 34 88 77 252 86 328 3 30 9 69 11 85 12 71 4 340
-11 395 -2 8 -7 31 -10 50 -56 332 -259 682 -526 906 -251 212 -522 329 -852
370 -67 8 -250 10 -317 3z"/>
<path d="M1443 3354 c-174 -44 -315 -179 -370 -352 -80 -252 38 -515 287 -639
287 -143 767 -319 1110 -408 50 -13 334 -76 365 -81 21 -3 47 -8 59 -10 19 -4
111 -19 176 -29 215 -33 384 -43 675 -40 160 2 301 5 315 8 14 3 57 8 95 12
39 3 85 8 103 11 500 66 964 197 1434 404 l97 43 178 -76 c395 -168 747 -271
1163 -342 97 -17 113 -19 210 -31 30 -3 69 -8 85 -10 218 -27 765 -26 950 1
17 2 53 7 80 10 28 3 79 10 115 16 36 6 83 13 105 15 76 10 368 76 509 115
244 69 535 175 738 268 37 17 73 31 79 31 6 0 41 -14 77 -31 116 -54 327 -137
469 -184 126 -42 387 -120 437 -129 12 -3 75 -16 141 -29 141 -30 272 -54 335
-62 94 -13 88 -12 325 -34 89 -9 597 -7 665 2 19 3 67 8 106 11 39 4 80 8 90
10 17 3 50 8 154 22 19 3 42 7 50 9 8 2 31 7 50 10 423 67 1062 272 1485 476
104 50 145 78 198 131 155 159 194 373 106 585 -26 62 -46 91 -103 148 -176
175 -395 209 -636 98 -64 -30 -90 -41 -245 -103 -75 -31 -342 -127 -375 -136
-8 -2 -60 -17 -115 -34 -93 -28 -398 -106 -455 -116 -14 -3 -61 -11 -105 -19
-44 -8 -102 -17 -130 -21 -27 -3 -58 -8 -67 -9 -55 -11 -225 -19 -368 -19
-166 0 -272 8 -415 29 -16 3 -48 7 -70 11 -61 8 -351 72 -430 93 -38 11 -97
27 -130 36 -147 40 -519 170 -631 220 -109 50 -270 116 -292 121 -56 12 -189
11 -241 -2 -30 -8 -115 -41 -190 -73 -198 -85 -333 -136 -531 -201 -146 -48
-366 -112 -429 -125 -9 -2 -46 -10 -84 -19 -37 -9 -82 -18 -100 -21 -17 -4
-50 -10 -72 -15 -158 -34 -417 -57 -620 -55 -151 2 -284 12 -385 30 -14 2 -45
7 -70 10 -25 4 -88 15 -140 26 -52 11 -106 22 -120 25 -14 3 -43 10 -65 15
-22 5 -49 12 -60 14 -19 5 -117 32 -260 74 -172 49 -496 169 -635 233 -185 86
-302 110 -430 87 -44 -8 -175 -60 -375 -149 -36 -16 -214 -80 -333 -120 -518
-173 -939 -250 -1332 -244 -228 3 -374 19 -605 66 -55 11 -107 21 -116 23
-265 53 -910 273 -1128 384 -96 49 -245 64 -358 35z"/>
</g>
</svg>
